<?xml version="1.0" encoding="UTF-8"?>
<svg fill="none" viewBox="0 0 24 24" xmlns="http://www.w3.org/2000/svg">
<path d="M10.972 2.708a1.2 1.2 0 0 1 2.056 0l2.33 3.873a1.2 1.2 0 0 0 .758.55l4.403 1.02a1.2 1.2 0 0 1 .636 1.956l-2.963 3.413a1.2 1.2 0 0 0-.29.89l.391 4.503a1.2 1.2 0 0 1-1.663 1.208l-4.162-1.763a1.2 1.2 0 0 0-.936 0L7.37 20.121a1.2 1.2 0 0 1-1.663-1.208l.39-4.503a1.2 1.2 0 0 0-.289-.89l-2.962-3.413A1.2 1.2 0 0 1 3.48 8.15l4.403-1.02a1.2 1.2 0 0 0 .757-.55l2.33-3.873Z" stroke="#ACADB9" stroke-width="1.5"/>
</svg>